HIERARCHY
ROOT Hips
{
	OFFSET 0.00 0.00 0.00
	CHANNELS 6 Xposition Yposition Zposition Xrotation Yrotation Zrotation
	JOINT LeftUpLeg
	{
		OFFSET 2.63333 0.00000 0.00000
		CHANNELS 3 Xrotation Yrotation Zrotation
		JOINT LeftLeg
		{
			OFFSET 0.00000 -16.49536 0.00000
			CHANNELS 3 Xrotation Yrotation Zrotation
			JOINT LeftFoot
			{
				OFFSET 0.00000 -14.46025 0.00000
				CHANNELS 3 Xrotation Yrotation Zrotation
				JOINT LeftToeBase
				{
					OFFSET 0.00000 -1.61074 6.01136
					CHANNELS 3 Xrotation Yrotation Zrotation
					End Site
					{
						OFFSET 0.00000 0.00000 2.95275
					}
				}
			}
		}
	}
	JOINT RightUpLeg
	{
		OFFSET -2.63333 0.00000 0.00000
		CHANNELS 3 Xrotation Yrotation Zrotation
		JOINT RightLeg
		{
			OFFSET 0.00000 -16.49536 0.00000
			CHANNELS 3 Xrotation Yrotation Zrotation
			JOINT RightFoot
			{
				OFFSET 0.00000 -14.46025 0.00000
				CHANNELS 3 Xrotation Yrotation Zrotation
				JOINT RightToeBase
				{
					OFFSET 0.00000 -1.61074 6.01136
					CHANNELS 3 Xrotation Yrotation Zrotation
					End Site
					{
						OFFSET 0.00000 0.00000 2.95275
					}
				}
			}
		}
	}
	JOINT Spine
	{
		OFFSET 0.00000 0.03937 0.00000
		CHANNELS 3 Xrotation Yrotation Zrotation
		JOINT Spine1
		{
			OFFSET 0.00000 8.73652 0.00000
			CHANNELS 3 Xrotation Yrotation Zrotation
			JOINT Neck
			{
				OFFSET 0.00000 8.59038 0.00000
				CHANNELS 3 Xrotation Yrotation Zrotation
				JOINT Head
				{
					OFFSET 0.00000 7.06117 0.00000
					CHANNELS 3 Xrotation Yrotation Zrotation
					End Site
					{
						OFFSET 0.00000 4.52755 0.00000
					}
				}
			}
			JOINT LeftShoulder
			{
				OFFSET 0.00000 8.59038 0.00000
				CHANNELS 3 Xrotation Yrotation Zrotation
				JOINT LeftArm
				{
					OFFSET 6.99892 -0.00003 0.00000
					CHANNELS 3 Xrotation Yrotation Zrotation
					JOINT LeftForeArm
					{
						OFFSET 10.51892 -0.00004 0.00000
						CHANNELS 3 Xrotation Yrotation Zrotation
						JOINT LeftHand
						{
							OFFSET 8.73923 -0.00003 0.00000
							CHANNELS 3 Xrotation Yrotation Zrotation
							JOINT LeftHandThumb
							{
								OFFSET 0.00000 0.00000 0.00000
								CHANNELS 3 Xrotation Yrotation Zrotation
								End Site
								{
									OFFSET 0.00000 0.00000 3.93700
								}
							}
							JOINT L_Wrist_End
							{
								OFFSET 3.93700 -0.00001 0.00000
								CHANNELS 3 Xrotation Yrotation Zrotation
							}
						}
					}
				}
			}
			JOINT RightShoulder
			{
				OFFSET 0.00000 8.59038 0.00000
				CHANNELS 3 Xrotation Yrotation Zrotation
				JOINT RightArm
				{
					OFFSET -6.99892 -0.00003 0.00000
					CHANNELS 3 Xrotation Yrotation Zrotation
					JOINT RightForeArm
					{
						OFFSET -10.51892 -0.00004 0.00000
						CHANNELS 3 Xrotation Yrotation Zrotation
						JOINT RightHand
						{
							OFFSET -8.73923 -0.00003 0.00000
							CHANNELS 3 Xrotation Yrotation Zrotation
							JOINT RightHandThumb
							{
								OFFSET 0.00000 0.00000 0.00000
								CHANNELS 3 Xrotation Yrotation Zrotation
								End Site
								{
									OFFSET 0.00000 0.00000 3.93700
								}
							}
							JOINT R_Wrist_End
							{
								OFFSET -5.39369 -0.00002 0.00000
								CHANNELS 3 Xrotation Yrotation Zrotation
							}
						}
					}
				}
			}
		}
	}
}
MOTION
Frames: 9
Frame Time: 0.033332
 70.6652 30.2048 -10.6503 -11.5910 49.4754 17.1231 -30.1234 17.5319 18.5771 21.1055 -0.0000 -0.0000 36.2163 -8.9216 2.4814 -11.3160 0.0000 0.0000 -2.4033 -12.9074 -27.6705 40.5290 -0.0000 0.0000 -24.0243 -17.7983 14.5962 1.8304 -0.0000 0.0000 14.8410 7.8601 0.7485 5.2934 9.7824 -2.6376 -3.3528 4.7814 -1.2134 -12.2546 2.5284 -3.3696 1.8191 15.9836 11.0386 31.5554 -35.6079 -69.1138 -0.0010 -78.1098 -0.0008 -33.5473 -20.2183 17.0842 -0.0000 0.0000 -0.0000 -0.0000 0.0000 -0.0000 23.9534 -8.7163 -4.7320 -58.7628 44.0911 81.6033 -179.9995 67.6273 179.9992 -1.4811 -10.0982 -11.2995 -0.0000 0.0000 -0.0000 -0.0000 0.0000 -0.0000
 69.0934 30.8351 -10.0225 -17.9630 59.1214 24.6687 -28.8986 17.9043 12.2385 20.3212 0.0000 0.0000 34.6262 -24.4291 -0.7162 -7.8698 0.0000 0.0000 -3.5765 -21.5150 -27.9609 42.4501 -0.0000 0.0000 -21.6481 -16.9955 15.0010 -0.7477 -0.0000 0.0000 11.4985 7.9773 -0.6000 8.6582 10.3795 0.2610 -2.0277 2.0546 -0.3634 -14.0254 -0.5792 -6.8182 3.0592 16.9617 12.7592 39.4546 -30.2784 -65.7312 -0.0017 -82.8270 -0.0015 -25.2072 -14.4897 17.6384 -0.0000 0.0000 -0.0000 -0.0000 0.0000 -0.0000 22.3724 -12.4032 -7.2472 -62.4260 40.6380 74.0306 -179.9994 70.8259 179.9991 -1.4290 -15.8717 -5.7276 -0.0000 -0.0000 0.0000 -0.0000 -0.0000 0.0000
 67.8049 32.1451 -9.2567 -34.6771 68.8366 38.0221 -26.7264 20.4301 11.2184 27.5986 -0.0000 0.0000 23.1710 -32.9979 -3.2803 -10.4470 -0.0000 -0.0000 3.6537 -25.6368 -17.7739 38.1786 -0.0000 0.0000 -11.3358 -26.9142 13.4730 -6.2965 0.0000 0.0000 13.2560 5.4332 -2.7025 1.4720 8.4693 8.3622 3.4588 2.2126 -2.1938 -14.9591 -4.2890 -1.8809 3.6829 15.9325 13.2447 46.4871 -29.4581 -61.6207 -0.0045 -87.3021 -0.0043 -29.6192 -16.1559 17.1365 -0.0000 -0.0000 0.0000 -0.0000 -0.0000 0.0000 19.3907 -14.0045 -7.3216 -47.2717 40.2673 64.7567 -179.9990 77.8137 179.9988 3.1760 -18.4652 -1.0557 -0.0000 0.0000 -0.0000 -0.0000 0.0000 -0.0000
 66.3161 33.5508 -9.1143 -52.2025 74.7683 55.5566 -22.3922 18.0028 7.5766 36.8050 0.0000 0.0000 14.8636 -22.4741 2.2853 -12.7014 0.0000 0.0000 0.8700 -19.4081 -13.6061 43.0501 -0.0000 0.0000 4.4121 -34.0908 16.5165 -8.8695 0.0000 -0.0000 14.5871 3.8067 -2.4831 -2.3020 7.0536 8.1840 1.6547 1.7629 -2.9564 -10.2605 -8.0370 0.2812 2.7433 15.9731 14.9125 41.4001 -35.7848 -58.7453 -0.0837 -89.8559 -0.0835 -20.3017 -11.9755 13.0051 -0.0000 -0.0000 0.0000 -0.0000 -0.0000 0.0000 17.7105 -16.7346 -7.2940 -32.9558 39.3640 62.1512 -0.1339 89.9100 0.1337 2.1795 -13.5664 -7.7773 -0.0000 0.0000 -0.0000 -0.0000 0.0000 -0.0000
 65.0996 34.5527 -8.7168 -72.8425 76.1343 77.2824 -15.0854 15.7065 5.9771 45.9428 -0.0000 0.0000 7.1686 -11.7360 5.3428 -12.5241 0.0000 -0.0000 -3.4512 -11.5136 -12.7266 50.8023 -0.0000 0.0000 4.8100 -10.0552 8.3906 -4.8090 0.0000 -0.0000 14.8182 3.1791 -3.5793 -2.0279 5.8947 6.8548 -0.2469 0.7350 -3.1973 -7.1553 -10.6362 0.5283 3.8964 15.4753 15.8263 27.2745 -38.9947 -63.2279 -179.9960 -86.9567 -179.9958 -14.3930 -9.5957 5.8140 -0.0000 -0.0000 0.0000 -0.0000 -0.0000 0.0000 18.0628 -19.3978 -5.0817 -22.0878 41.1370 59.8222 -0.0008 76.0391 0.0007 0.6814 -9.7726 -10.2913 -0.0000 0.0000 -0.0000 -0.0000 0.0000 -0.0000
 63.9069 35.0569 -8.3049 -83.4945 76.8652 87.6138 -8.8388 15.8071 8.6607 52.5464 -0.0000 0.0000 3.7020 -7.5699 6.2616 -12.1432 0.0000 0.0000 -9.0108 -0.7875 -8.9665 54.7809 -0.0000 0.0000 5.7992 4.1689 9.0347 -7.9205 -0.0000 -0.0000 13.7040 3.0919 -4.4115 -1.4544 5.4149 6.6858 -0.1236 0.9120 -4.3398 -7.1815 -11.1365 2.2714 7.8403 15.9796 13.3820 10.9269 -42.0191 -65.7612 -179.9982 -83.2985 -179.9980 -13.7818 -10.1170 3.9004 -0.0000 -0.0000 0.0000 -0.0000 -0.0000 0.0000 21.7012 -19.9925 -2.6788 -14.8681 42.5120 56.0918 -0.0005 68.4525 0.0004 -0.0590 -10.3215 -8.2242 -0.0000 0.0000 -0.0000 -0.0000 0.0000 -0.0000
 62.6429 35.0711 -7.7277 -107.4528 77.8303 109.6900 -4.5062 13.1190 13.2643 56.5023 -0.0000 0.0000 2.6684 -6.9663 8.8196 -11.9231 -0.0000 0.0000 -14.2040 -0.0071 -5.8163 52.4164 -0.0000 0.0000 5.3837 -7.3676 7.2990 -6.3892 0.0000 0.0000 12.2823 1.8692 -4.9898 -2.0541 3.9405 7.8930 0.7523 1.5398 -6.1860 -8.2221 -12.2360 5.8982 11.4884 15.3275 9.8800 -4.9701 -43.2984 -70.4776 -179.9987 -80.6509 -179.9985 -14.6311 -11.4552 4.1739 -0.0000 0.0000 -0.0000 -0.0000 0.0000 -0.0000 20.0118 -21.1046 -3.0401 -6.8022 44.1904 53.6246 -0.0005 69.0338 0.0004 -0.4566 -10.2282 -6.8945 -0.0000 0.0000 -0.0000 -0.0000 0.0000 -0.0000
 61.3525 34.6749 -7.2306 -139.9803 74.0701 141.7526 -2.1238 8.4927 16.4370 60.1196 -0.0000 0.0000 2.7065 -6.5050 12.7997 -12.4919 0.0000 0.0000 -15.4320 -5.6974 -6.8516 44.6494 -0.0000 0.0000 10.8943 -11.9888 8.5061 -4.5504 0.0000 0.0000 11.4948 -0.8361 -5.6682 -2.9534 0.9725 7.7543 0.2422 2.1147 -7.5073 -6.4211 -13.9508 7.5128 13.4397 14.5580 7.8718 -16.2108 -40.4229 -81.9066 -179.9987 -81.1038 -179.9984 -15.5846 -12.0265 5.2150 -0.0000 0.0000 -0.0000 -0.0000 0.0000 -0.0000 18.4109 -23.7702 -4.3019 -7.0946 45.8539 53.5580 -0.0009 76.9028 0.0007 1.7096 -9.2681 -4.3124 -0.0000 0.0000 -0.0000 -0.0000 0.0000 -0.0000
 60.3840 33.8738 -6.8366 -149.4260 70.7084 150.2012 -1.0599 9.6233 21.9670 63.7876 -0.0000 0.0000 2.7202 -7.3224 11.8456 -12.6251 0.0000 0.0000 -11.1376 -11.7470 -6.3603 34.3885 -0.0000 0.0000 9.0334 -7.5383 5.2651 -14.2901 0.0000 0.0000 10.9321 -0.7757 -4.8985 -5.0192 2.2501 4.3811 0.9260 0.9675 -6.3985 -4.3975 -16.1391 8.4337 14.0380 16.3470 8.1248 -14.8678 -40.0981 -90.7063 -179.9979 -84.2579 -179.9977 -20.5230 -11.5658 5.8745 -0.0000 0.0000 -0.0000 -0.0000 0.0000 -0.0000 17.9082 -26.3476 -4.6022 -13.3428 43.7451 55.0070 -0.0062 88.0431 0.0060 5.6053 -10.4294 -5.4949 -0.0000 0.0000 -0.0000 -0.0000 0.0000 -0.0000
